<svg version="1.1" id="Layer_1" xmlns="http://www.w3.org/2000/svg" xmlns:xlink="http://www.w3.org/1999/xlink" x="0px" y="0px"
	 width="100%" viewBox="0 0 182 155" enable-background="new 0 0 182 155" xml:space="preserve">
<path fill="#000000" opacity="1.000000" stroke="none" 
	d="
M125.000000,156.000000 
	C83.333336,156.000000 42.166676,156.000000 1.000011,156.000000 
	C1.000007,104.333344 1.000007,52.666687 1.000004,1.000025 
	C61.666645,1.000017 122.333290,1.000017 182.999954,1.000008 
	C182.999969,52.666641 182.999969,104.333282 182.999985,155.999969 
	C163.833328,156.000000 144.666672,156.000000 125.000000,156.000000 
M69.064049,63.930477 
	C70.080276,63.303871 71.096512,62.677265 72.733765,61.770977 
	C74.818420,60.236359 76.903084,58.701740 79.625198,56.860210 
	C83.366692,54.121086 87.108177,51.381962 91.395386,48.243320 
	C91.194206,50.449989 91.083534,51.663925 90.264656,53.305077 
	C89.414047,55.796688 90.835037,56.023224 92.797951,56.020100 
	C114.008286,55.986336 135.218811,56.019749 156.428665,55.912682 
	C157.309357,55.908237 158.183975,54.702267 159.778397,53.577824 
	C159.851990,52.253868 159.831146,50.916748 160.013611,49.607967 
	C162.118240,34.511055 146.400070,21.704149 133.224808,22.741711 
	C121.944832,23.630020 110.491760,22.105293 99.116699,22.139137 
	C95.926849,22.148626 92.420486,23.340866 89.625404,24.964878 
	C84.577873,27.897614 79.865234,31.442198 75.179977,34.954357 
	C68.679924,39.826927 62.334194,44.905365 55.469368,49.986286 
	C55.469368,49.986286 55.038132,50.152054 54.436783,50.145683 
	C53.918968,50.735691 53.401157,51.325703 52.181412,51.987095 
	C48.839119,54.659863 45.496826,57.332630 41.817390,60.609348 
	C39.763157,61.754601 37.708923,62.899853 35.080761,64.582069 
	C34.443230,68.386848 33.805695,72.191628 33.034191,76.657387 
	C33.077320,77.102814 33.120449,77.548248 33.033676,78.666954 
	C33.662052,79.785606 34.290432,80.904251 34.934139,82.062614 
	C34.934139,82.062614 34.964596,82.093323 35.019318,82.801544 
	C38.037189,89.063507 42.944263,92.786057 50.799709,94.013687 
	C72.226006,94.009201 93.652367,93.982361 115.078476,94.043594 
	C116.752289,94.048378 118.424339,94.668694 119.681107,95.497833 
	C118.449265,96.660233 117.217430,97.822624 115.229759,98.944115 
	C112.784019,100.940002 110.338272,102.935883 107.194183,104.928261 
	C105.785110,106.280403 104.376045,107.632538 102.309753,109.063393 
	C100.863808,109.982414 99.417862,110.901436 97.444008,111.477440 
	C98.292145,108.906113 99.140282,106.334785 100.223206,103.051666 
	C89.430733,103.051666 79.219322,103.051666 68.700195,102.213577 
	C60.255962,102.142616 51.811718,102.043205 43.367519,102.047333 
	C42.575600,102.047722 41.784000,102.701401 40.087654,102.967438 
	C30.947363,102.849068 28.005835,106.764061 30.974501,115.960121 
	C31.486855,127.707497 41.820431,135.650345 50.284382,135.935760 
	C61.760082,136.322769 73.283577,135.504974 84.743744,136.071030 
	C93.417381,136.499435 101.096092,135.161102 107.683716,129.242767 
	C109.397110,127.703445 111.281349,126.350540 113.119057,124.954033 
	C118.768173,120.661140 124.432777,116.388611 130.652466,111.780891 
	C132.115845,110.556114 133.579224,109.331337 135.719131,107.967705 
	C137.826111,106.336510 139.933075,104.705315 142.651596,102.762268 
	C146.766724,99.850555 150.881836,96.938850 155.617935,93.546616 
	C157.932281,88.237411 157.768021,83.010002 154.787216,77.257492 
	C151.728104,73.537987 149.547165,68.811653 143.779633,67.329338 
	C142.247238,66.877182 140.714859,66.425018 138.734131,65.193718 
	C125.941505,65.111839 113.148705,65.050751 100.356308,64.941589 
	C89.899323,64.852348 79.442825,64.705734 69.064049,63.930477 
z"/>
<path fill="#FE4759" opacity="1.000000" stroke="none" 
	d="
M90.972862,52.877857 
	C91.083534,51.663925 91.194206,50.449989 91.395386,48.243320 
	C87.108177,51.381962 83.366692,54.121086 79.291656,56.604248 
	C77.477524,55.234280 76.103600,53.374668 74.496544,53.144772 
	C69.488472,52.428352 64.379814,52.444290 59.339058,51.905750 
	C58.142246,51.777885 57.058273,50.593876 55.922398,49.895664 
	C62.334194,44.905365 68.679924,39.826927 75.179977,34.954357 
	C79.865234,31.442198 84.577873,27.897614 89.625404,24.964878 
	C92.420486,23.340866 95.926849,22.148626 99.116699,22.139137 
	C110.491760,22.105293 121.944832,23.630020 133.224808,22.741711 
	C146.400070,21.704149 162.118240,34.511055 160.013611,49.607967 
	C159.831146,50.916748 159.851990,52.253868 159.029083,53.966572 
	C157.648285,54.542702 157.017242,54.892284 156.385284,54.893955 
	C135.701050,54.948631 115.016571,55.003021 94.332840,54.905605 
	C93.209686,54.900314 92.092712,53.583935 90.972862,52.877857 
M92.333809,47.327812 
	C92.180634,47.802261 92.027466,48.276707 91.874290,48.751156 
	C92.208580,48.440819 92.542870,48.130482 92.333809,47.327812 
z"/>
<path fill="#03365E" opacity="1.000000" stroke="none" 
	d="
M97.971924,111.820465 
	C99.417862,110.901436 100.863808,109.982414 103.071640,109.031128 
	C109.047997,109.002548 114.300247,108.626266 119.464005,109.139854 
	C123.069206,109.498428 126.553215,111.075409 130.091354,112.108162 
	C124.432777,116.388611 118.768173,120.661140 113.119057,124.954033 
	C111.281349,126.350540 109.397110,127.703445 107.683716,129.242767 
	C101.096092,135.161102 93.417381,136.499435 84.743744,136.071030 
	C73.283577,135.504974 61.760082,136.322769 50.284382,135.935760 
	C41.820431,135.650345 31.486855,127.707497 31.026007,115.168671 
	C31.653093,109.742325 34.849174,109.704857 38.412651,110.091690 
	C42.020935,110.483391 45.644032,110.887192 49.267513,110.964813 
	C65.500977,111.312553 81.736893,111.545860 97.971924,111.820465 
z"/>
<path fill="#0383D9" opacity="1.000000" stroke="none" 
	d="
M155.100403,77.865219 
	C157.768021,83.010002 157.932281,88.237411 154.846313,93.697922 
	C143.441681,93.818222 132.808655,93.787216 121.813560,93.532867 
	C120.795883,93.212303 120.140388,93.030846 119.484673,93.030052 
	C97.354256,93.003181 75.223801,92.981506 53.093445,93.017479 
	C52.009823,93.019241 50.927048,93.547302 49.843880,93.830284 
	C42.944263,92.786057 38.037189,89.063507 35.360146,82.481476 
	C38.920425,84.371239 42.019062,84.245033 45.498013,82.390839 
	C47.430691,81.360764 49.946068,81.072441 52.202721,81.057976 
	C68.683739,80.952301 85.165749,81.000954 101.647446,81.000931 
	C119.095886,81.000900 136.544327,81.000916 154.510849,81.000916 
	C154.631958,80.356728 154.866180,79.110977 155.100403,77.865219 
z"/>
<path fill="#0287E1" opacity="1.000000" stroke="none" 
	d="
M154.943817,77.561356 
	C154.866180,79.110977 154.631958,80.356728 154.510849,81.000916 
	C136.544327,81.000916 119.095886,81.000900 101.647446,81.000931 
	C85.165749,81.000954 68.683739,80.952301 52.202721,81.057976 
	C49.946068,81.072441 47.430691,81.360764 45.498013,82.390839 
	C42.019062,84.245033 38.920425,84.371239 35.332783,82.127365 
	C34.964596,82.093323 34.934139,82.062614 34.947784,81.683998 
	C34.362148,80.201477 33.762863,79.097580 33.163574,77.993675 
	C33.120449,77.548248 33.077320,77.102814 33.424988,76.218727 
	C35.728500,69.908142 39.919010,68.527283 45.729824,68.903519 
	C56.156483,69.578644 66.619461,69.865387 77.070366,69.955429 
	C95.372688,70.113106 113.678810,70.122520 131.979874,69.903511 
	C136.009903,69.855278 140.025406,68.593193 144.047607,67.890083 
	C149.547165,68.811653 151.728104,73.537987 154.943817,77.561356 
z"/>
<path fill="#0B3355" opacity="1.000000" stroke="none" 
	d="
M97.707962,111.648956 
	C81.736893,111.545860 65.500977,111.312553 49.267513,110.964813 
	C45.644032,110.887192 42.020935,110.483391 38.412651,110.091690 
	C34.849174,109.704857 31.653093,109.742325 31.001677,114.769234 
	C28.005835,106.764061 30.947363,102.849068 41.007732,103.030960 
	C50.954510,103.080208 59.981213,103.065941 69.007912,103.051666 
	C79.219322,103.051666 89.430733,103.051666 100.223206,103.051666 
	C99.140282,106.334785 98.292145,108.906113 97.707962,111.648956 
z"/>
<path fill="#048AE5" opacity="1.000000" stroke="none" 
	d="
M143.913620,67.609711 
	C140.025406,68.593193 136.009903,69.855278 131.979874,69.903511 
	C113.678810,70.122520 95.372688,70.113106 77.070366,69.955429 
	C66.619461,69.865387 56.156483,69.578644 45.729824,68.903519 
	C39.919010,68.527283 35.728500,69.908142 33.491974,75.888237 
	C33.805695,72.191628 34.443230,68.386848 35.598717,64.710327 
	C46.661358,65.009254 57.206039,65.179924 68.128708,65.558006 
	C92.065277,65.834564 115.623871,65.903709 139.182465,65.972855 
	C140.714859,66.425018 142.247238,66.877182 143.913620,67.609711 
z"/>
<path fill="#FC4051" opacity="1.000000" stroke="none" 
	d="
M55.695885,49.940975 
	C57.058273,50.593876 58.142246,51.777885 59.339058,51.905750 
	C64.379814,52.444290 69.488472,52.428352 74.496544,53.144772 
	C76.103600,53.374668 77.477524,55.234280 78.972923,56.757698 
	C76.903084,58.701740 74.818420,60.236359 71.947479,61.897926 
	C64.108910,62.014503 57.049740,62.179722 50.007919,61.903183 
	C47.369350,61.799564 44.771145,60.668186 42.154537,60.005394 
	C45.496826,57.332630 48.839119,54.659863 52.839241,51.923645 
	C54.010754,51.290813 54.524445,50.721432 55.038132,50.152054 
	C55.038132,50.152054 55.469368,49.986286 55.695885,49.940975 
z"/>
<path fill="#03223E" opacity="1.000000" stroke="none" 
	d="
M122.175636,93.756210 
	C132.808655,93.787216 143.441681,93.818222 154.535828,93.938187 
	C150.881836,96.938850 146.766724,99.850555 142.231812,102.555222 
	C136.327942,98.548958 130.244949,100.347618 124.314079,100.333939 
	C121.536896,100.327538 118.761696,99.461479 115.985596,98.985031 
	C117.217430,97.822624 118.449265,96.660233 120.208221,95.233040 
	C121.215439,94.564232 121.695534,94.160225 122.175636,93.756210 
z"/>
<path fill="#052A49" opacity="1.000000" stroke="none" 
	d="
M115.607681,98.964569 
	C118.761696,99.461479 121.536896,100.327538 124.314079,100.333939 
	C130.244949,100.347618 136.327942,98.548958 141.926041,102.711143 
	C139.933075,104.705315 137.826111,106.336510 135.338791,107.623749 
	C133.387054,106.520638 131.836288,105.159798 130.240738,105.105080 
	C122.798111,104.849823 115.343109,104.955292 107.892532,104.931763 
	C110.338272,102.935883 112.784019,100.940002 115.607681,98.964569 
z"/>
<path fill="#063052" opacity="1.000000" stroke="none" 
	d="
M107.543358,104.930016 
	C115.343109,104.955292 122.798111,104.849823 130.240738,105.105080 
	C131.836288,105.159798 133.387054,106.520638 135.000519,107.693176 
	C133.579224,109.331337 132.115845,110.556114 130.371918,111.944519 
	C126.553215,111.075409 123.069206,109.498428 119.464005,109.139854 
	C114.300247,108.626266 109.047997,109.002548 103.400253,108.991776 
	C104.376045,107.632538 105.785110,106.280403 107.543358,104.930016 
z"/>
<path fill="#EF3847" opacity="1.000000" stroke="none" 
	d="
M41.985962,60.307373 
	C44.771145,60.668186 47.369350,61.799564 50.007919,61.903183 
	C57.049740,62.179722 64.108910,62.014503 71.636963,62.037766 
	C71.096512,62.677265 70.080276,63.303871 68.683159,64.395691 
	C68.118423,65.024139 67.934570,65.187370 67.750725,65.350594 
	C57.206039,65.179924 46.661358,65.009254 35.885681,64.441849 
	C37.708923,62.899853 39.763157,61.754601 41.985962,60.307373 
z"/>
<path fill="#66AAD9" opacity="1.000000" stroke="none" 
	d="
M121.813560,93.532867 
	C121.695534,94.160225 121.215439,94.564232 120.416275,94.985588 
	C118.424339,94.668694 116.752289,94.048378 115.078476,94.043594 
	C93.652367,93.982361 72.226006,94.009201 50.321793,93.921982 
	C50.927048,93.547302 52.009823,93.019241 53.093445,93.017479 
	C75.223801,92.981506 97.354256,93.003181 119.484673,93.030052 
	C120.140388,93.030846 120.795883,93.212303 121.813560,93.532867 
z"/>
<path fill="#E86774" opacity="1.000000" stroke="none" 
	d="
M90.618759,53.091469 
	C92.092712,53.583935 93.209686,54.900314 94.332840,54.905605 
	C115.016571,55.003021 135.701050,54.948631 156.385284,54.893955 
	C157.017242,54.892284 157.648285,54.542702 158.670593,54.205692 
	C158.183975,54.702267 157.309357,55.908237 156.428665,55.912682 
	C135.218811,56.019749 114.008286,55.986336 92.797951,56.020100 
	C90.835037,56.023224 89.414047,55.796688 90.618759,53.091469 
z"/>
<path fill="#719DCC" opacity="1.000000" stroke="none" 
	d="
M68.128708,65.558006 
	C67.934570,65.187370 68.118423,65.024139 68.644188,64.722733 
	C79.442825,64.705734 89.899323,64.852348 100.356308,64.941589 
	C113.148705,65.050751 125.941505,65.111839 138.958298,65.583282 
	C115.623871,65.903709 92.065277,65.834564 68.128708,65.558006 
z"/>
<path fill="#FFFFFF" opacity="1.000000" stroke="none" 
	d="
M68.854050,102.632622 
	C59.981213,103.065941 50.954510,103.080208 41.460030,103.073120 
	C41.784000,102.701401 42.575600,102.047722 43.367519,102.047333 
	C51.811718,102.043205 60.255962,102.142616 68.854050,102.632622 
z"/>
<path fill="#0383D9" opacity="1.000000" stroke="none" 
	d="
M33.098625,78.330315 
	C33.762863,79.097580 34.362148,80.201477 34.940125,81.664139 
	C34.290432,80.904251 33.662052,79.785606 33.098625,78.330315 
z"/>
<path fill="#FE4759" opacity="1.000000" stroke="none" 
	d="
M54.737457,50.148869 
	C54.524445,50.721432 54.010754,51.290813 53.190208,51.887955 
	C53.401157,51.325703 53.918968,50.735691 54.737457,50.148869 
z"/>
<path fill="#000000" opacity="1.000000" stroke="none" 
	d="
M92.605484,47.573978 
	C92.542870,48.130482 92.208580,48.440819 91.874290,48.751156 
	C92.027466,48.276707 92.180634,47.802261 92.605484,47.573978 
z"/>
</svg>