<svg version="1.1" id="Layer_1" xmlns="http://www.w3.org/2000/svg" xmlns:xlink="http://www.w3.org/1999/xlink" x="0px" y="0px"
	 width="100%" viewBox="0 0 182 155" enable-background="new 0 0 182 155" xml:space="preserve">
<path fill="#FEFEFE" opacity="1.000000" stroke="none" 
	d="
M129.000000,156.000000 
	C86.000008,156.000000 43.345611,156.000000 1.000011,156.000000 
	C1.000008,104.333344 1.000008,52.666691 1.000004,1.000025 
	C61.666645,1.000017 122.333290,1.000017 182.999954,1.000008 
	C182.999969,52.666641 182.999969,104.333282 182.999985,155.999969 
	C165.166672,156.000000 147.333328,156.000000 129.000000,156.000000 
M34.859203,81.007957 
	C34.859203,81.007957 35.091064,80.983215 35.086143,81.597916 
	C35.350124,81.896507 35.614109,82.195099 35.824860,82.803093 
	C35.824860,82.803093 36.070446,82.998688 36.087166,83.541481 
	C36.360687,83.752792 36.634209,83.964104 36.903198,84.081825 
	C36.903198,84.081825 36.818741,84.122406 36.891281,84.808182 
	C38.930271,86.861710 40.969261,88.915245 43.324356,91.474411 
	C43.877838,91.649185 44.431320,91.823967 45.000301,91.995552 
	C45.000301,91.995552 45.006081,92.009972 45.411728,92.512474 
	C45.824127,92.613571 46.236530,92.714676 47.415180,92.796333 
	C50.705399,93.121605 53.993412,93.701759 57.286201,93.730278 
	C76.855881,93.899757 96.426666,93.941597 116.006836,94.746315 
	C116.419739,95.536461 116.832649,96.326599 116.933792,97.688240 
	C116.127640,98.395020 115.321480,99.101799 113.936050,99.958176 
	C112.764709,100.687553 111.593369,101.416924 109.825241,102.253296 
	C109.566017,102.549019 109.306793,102.844742 108.839287,103.652878 
	C108.589867,103.919899 108.340439,104.186913 107.511490,104.686554 
	C107.123146,104.829765 106.734802,104.972977 105.996803,104.243584 
	C103.935257,103.855583 101.873711,103.467583 98.898483,103.092354 
	C78.345413,103.087578 57.792343,103.082558 37.239273,103.078133 
	C30.531893,103.076683 29.992228,103.555809 29.996601,110.344902 
	C29.997736,112.106056 30.503864,113.866882 30.643770,116.357925 
	C32.812908,127.015953 39.698708,133.606659 51.918629,136.062042 
	C66.042587,136.082809 80.166649,136.130966 94.290352,136.080841 
	C95.661964,136.075974 97.031425,135.463364 99.057381,135.021576 
	C108.754532,127.851364 118.451683,120.681152 128.789948,113.231491 
	C130.889297,111.582832 132.988647,109.934174 135.750793,108.087524 
	C137.856430,106.449333 139.962067,104.811150 142.742355,102.984512 
	C146.681061,99.984253 150.619766,96.983994 155.172440,93.685135 
	C157.207245,88.958488 157.542191,84.236267 155.041779,78.845711 
	C151.158768,69.480904 144.010971,65.237999 133.130630,65.146317 
	C125.003227,65.112755 116.875435,65.013824 108.748505,65.060913 
	C96.489151,65.131943 84.230385,65.304924 71.184578,65.345619 
	C70.134407,65.260269 69.084236,65.174911 68.220322,64.434395 
	C69.307877,63.658062 70.395439,62.881725 72.109512,61.952946 
	C74.399757,60.201443 76.690010,58.449940 79.604904,56.527229 
	C83.539574,53.679958 87.474236,50.832687 92.496445,47.198437 
	C91.426270,50.926682 90.764687,53.231480 89.978210,55.971394 
	C112.319603,55.971394 134.134933,56.021065 155.948120,55.828815 
	C157.071854,55.818916 158.842422,53.912991 159.189209,52.594540 
	C162.967911,38.228336 151.349884,23.228075 136.150955,22.981016 
	C122.657440,22.761681 109.157272,22.897171 95.660797,22.988392 
	C94.089981,22.999008 92.215660,23.302736 91.003578,24.186148 
	C79.171768,32.809647 67.450935,41.585419 55.261700,50.461353 
	C55.261700,50.461353 55.024830,50.855423 54.438622,50.996204 
	C54.182632,51.293259 53.926647,51.590313 53.146919,51.993771 
	C52.763680,52.345715 52.380440,52.697659 51.469158,53.116062 
	C51.260487,53.389400 51.051819,53.662739 50.200325,54.121552 
	C47.709091,56.030319 45.217854,57.939083 42.164265,60.186085 
	C40.055771,61.716087 37.947277,63.246094 35.312950,64.955566 
	C35.090549,65.239326 34.868149,65.523094 34.193970,66.426666 
	C34.148468,70.905418 34.102966,75.384163 34.119438,80.302109 
	C34.212929,80.593369 34.381828,80.831039 34.859203,81.007957 
z"/>
<path fill="#FD485A" opacity="1.000000" stroke="none" 
	d="
M55.698505,50.317844 
	C67.450935,41.585419 79.171768,32.809647 91.003578,24.186148 
	C92.215660,23.302736 94.089981,22.999008 95.660797,22.988392 
	C109.157272,22.897171 122.657440,22.761681 136.150955,22.981016 
	C151.349884,23.228075 162.967911,38.228336 159.189209,52.594540 
	C158.842422,53.912991 157.071854,55.818916 155.948120,55.828815 
	C134.134933,56.021065 112.319603,55.971394 89.978210,55.971394 
	C90.764687,53.231480 91.426270,50.926682 92.496445,47.198437 
	C87.474236,50.832687 83.539574,53.679958 79.283234,56.244370 
	C78.182396,51.860489 74.648102,52.349197 71.919647,52.092514 
	C68.140724,51.737011 64.293106,52.164822 60.496037,51.923992 
	C58.869446,51.820827 57.296062,50.878750 55.698505,50.317844 
z"/>
<path fill="#03365F" opacity="1.000000" stroke="none" 
	d="
M128.148834,113.510941 
	C118.451683,120.681152 108.754532,127.851364 98.235825,135.038193 
	C83.354248,135.036301 69.294159,134.993683 55.234337,135.036423 
	C53.822731,135.040710 52.412693,135.562195 51.001930,135.843643 
	C39.698708,133.606659 32.812908,127.015953 30.863178,115.584129 
	C31.847670,110.084534 34.646095,109.029884 38.879009,110.431007 
	C39.811974,110.739822 40.823933,110.967712 41.799362,110.967148 
	C60.219131,110.956573 78.638878,110.905998 97.373878,110.939651 
	C98.329544,110.969795 98.969948,110.924049 99.905510,110.803162 
	C100.446945,110.418900 100.693230,110.109787 101.021835,109.565598 
	C101.342415,109.050735 101.642647,108.941849 102.417961,109.003754 
	C108.545166,110.952988 114.198479,110.310181 119.995811,109.112679 
	C123.496223,108.389641 126.949333,109.241219 128.148834,113.510941 
z"/>
<path fill="#0388E2" opacity="1.000000" stroke="none" 
	d="
M68.034065,65.089561 
	C69.084236,65.174911 70.134407,65.260269 71.932091,65.592712 
	C91.167015,65.895523 109.654404,65.968430 128.141846,65.981712 
	C130.102524,65.983116 132.063477,65.634895 134.024292,65.448868 
	C144.010971,65.237999 151.158768,69.480904 155.013779,79.592072 
	C154.090668,80.767952 153.195801,81.556282 152.300430,81.556854 
	C150.004181,81.558311 147.696335,80.943443 145.413040,81.041031 
	C109.229256,82.587532 72.855766,77.497643 36.818741,84.122406 
	C36.818741,84.122406 36.903198,84.081825 36.850235,83.879898 
	C36.554993,83.451546 36.312717,83.225121 36.070446,82.998688 
	C36.070446,82.998688 35.824860,82.803093 35.818619,82.350296 
	C35.571941,81.592735 35.331505,81.287979 35.091064,80.983215 
	C35.091064,80.983215 34.859203,81.007957 34.757908,80.779587 
	C34.553654,80.237587 34.353939,80.008156 34.057465,79.862915 
	C34.102966,75.384163 34.148468,70.905418 34.840996,66.103699 
	C35.749809,65.681381 36.011604,65.582047 36.682922,65.474953 
	C47.406322,65.341316 57.720192,65.215439 68.034065,65.089561 
z"/>
<path fill="#0785D9" opacity="1.000000" stroke="none" 
	d="
M36.855011,84.465294 
	C72.855766,77.497643 109.229256,82.587532 145.413040,81.041031 
	C147.696335,80.943443 150.004181,81.558311 152.300430,81.556854 
	C153.195801,81.556282 154.090668,80.767952 155.060638,79.929825 
	C157.542191,84.236267 157.207245,88.958488 154.360123,93.777664 
	C147.398392,93.835556 141.246643,93.683495 135.100311,93.804871 
	C130.498505,93.895752 125.903648,94.338867 120.999542,94.369476 
	C119.127945,94.084641 117.562515,94.055481 115.997078,94.026321 
	C96.426666,93.941597 76.855881,93.899757 57.286201,93.730278 
	C53.993412,93.701759 50.705399,93.121605 46.831772,92.549774 
	C45.834270,92.205475 45.420174,92.107727 45.006081,92.009979 
	C45.006081,92.009972 45.000301,91.995552 44.832329,91.750076 
	C44.112324,91.325989 43.560287,91.147377 43.008251,90.968773 
	C40.969261,88.915245 38.930271,86.861710 36.855011,84.465294 
z"/>
<path fill="#0C3355" opacity="1.000000" stroke="none" 
	d="
M97.058624,110.863762 
	C78.638878,110.905998 60.219131,110.956573 41.799362,110.967148 
	C40.823933,110.967712 39.811974,110.739822 38.879009,110.431007 
	C34.646095,109.029884 31.847670,110.084534 30.930309,115.219101 
	C30.503864,113.866882 29.997736,112.106056 29.996601,110.344902 
	C29.992228,103.555809 30.531893,103.076683 37.239273,103.078133 
	C57.792343,103.082558 78.345413,103.087578 99.380524,103.442207 
	C98.927925,106.149292 97.993271,108.506523 97.058624,110.863762 
z"/>
<path fill="#FC3F50" opacity="1.000000" stroke="none" 
	d="
M55.480103,50.389599 
	C57.296062,50.878750 58.869446,51.820827 60.496037,51.923992 
	C64.293106,52.164822 68.140724,51.737011 71.919647,52.092514 
	C74.648102,52.349197 78.182396,51.860489 78.970909,56.329971 
	C76.690010,58.449940 74.399757,60.201443 71.289825,62.001923 
	C63.140434,62.032509 55.805523,62.159664 48.484501,61.898056 
	C46.543266,61.828690 44.644749,60.563808 42.726616,59.847855 
	C45.217854,57.939083 47.709091,56.030319 50.768715,53.962822 
	C51.557137,53.552597 51.777172,53.301102 51.997208,53.049606 
	C52.380440,52.697659 52.763680,52.345715 53.704094,51.875866 
	C54.515789,51.457115 54.770309,51.156269 55.024830,50.855423 
	C55.024830,50.855423 55.261700,50.461353 55.480103,50.389599 
z"/>
<path fill="#04233F" opacity="1.000000" stroke="none" 
	d="
M121.305695,94.625153 
	C125.903648,94.338867 130.498505,93.895752 135.100311,93.804871 
	C141.246643,93.683495 147.398392,93.835556 154.053131,93.926964 
	C150.619766,96.983994 146.681061,99.984253 142.169708,102.769943 
	C139.537155,102.035568 137.500778,101.213737 135.413055,101.051170 
	C128.457077,100.509514 121.482674,100.204376 114.515335,99.808578 
	C115.321480,99.101799 116.127640,98.395020 117.419968,97.338005 
	C119.039322,96.200226 120.172508,95.412689 121.305695,94.625153 
z"/>
<path fill="#062B49" opacity="1.000000" stroke="none" 
	d="
M114.225693,99.883377 
	C121.482674,100.204376 128.457077,100.509514 135.413055,101.051170 
	C137.500778,101.213737 139.537155,102.035568 141.832367,102.864166 
	C139.962067,104.811150 137.856430,106.449333 135.356262,107.775833 
	C133.892273,106.650063 132.851273,105.189529 131.748062,105.140907 
	C128.179306,104.983597 124.581718,105.554649 121.006432,105.452591 
	C116.695297,105.329529 112.395645,104.804794 108.091019,104.453934 
	C108.340439,104.186913 108.589867,103.919899 109.240143,103.338867 
	C109.901337,102.732002 110.161674,102.439148 110.422028,102.146286 
	C111.593369,101.416924 112.764709,100.687553 114.225693,99.883377 
z"/>
<path fill="#073154" opacity="1.000000" stroke="none" 
	d="
M107.801254,104.570244 
	C112.395645,104.804794 116.695297,105.329529 121.006432,105.452591 
	C124.581718,105.554649 128.179306,104.983597 131.748062,105.140907 
	C132.851273,105.189529 133.892273,106.650063 135.024872,107.874832 
	C132.988647,109.934174 130.889297,111.582832 128.469391,113.371216 
	C126.949333,109.241219 123.496223,108.389641 119.995811,109.112679 
	C114.198479,110.310181 108.545166,110.952988 102.571655,108.735924 
	C103.656998,107.350868 105.001732,106.233528 106.346458,105.116196 
	C106.734802,104.972977 107.123146,104.829765 107.801254,104.570244 
z"/>
<path fill="#EF3645" opacity="1.000000" stroke="none" 
	d="
M42.445442,60.016968 
	C44.644749,60.563808 46.543266,61.828690 48.484501,61.898056 
	C55.805523,62.159664 63.140434,62.032509 70.976578,62.078148 
	C70.395439,62.881725 69.307877,63.658062 68.127197,64.761978 
	C57.720192,65.215439 47.406322,65.341316 36.633636,65.262680 
	C36.174824,65.058174 35.838783,64.776100 35.838783,64.776100 
	C37.947277,63.246094 40.055771,61.716087 42.445442,60.016968 
z"/>
<path fill="#709DCD" opacity="1.000000" stroke="none" 
	d="
M133.577454,65.297592 
	C132.063477,65.634895 130.102524,65.983116 128.141846,65.981712 
	C109.654404,65.968430 91.167015,65.895523 72.325485,65.637192 
	C84.230385,65.304924 96.489151,65.131943 108.748505,65.060913 
	C116.875435,65.013824 125.003227,65.112755 133.577454,65.297592 
z"/>
<path fill="#0A2449" opacity="1.000000" stroke="none" 
	d="
M51.460281,135.952850 
	C52.412693,135.562195 53.822731,135.040710 55.234337,135.036423 
	C69.294159,134.993683 83.354248,135.036301 97.908073,135.093842 
	C97.031425,135.463364 95.661964,136.075974 94.290352,136.080841 
	C80.166649,136.130966 66.042587,136.082809 51.460281,135.952850 
z"/>
<path fill="#F8FBFA" opacity="1.000000" stroke="none" 
	d="
M106.171631,104.679886 
	C105.001732,106.233528 103.656998,107.350868 102.158569,108.736038 
	C101.642647,108.941849 101.342415,109.050735 100.727066,109.645538 
	C100.103424,110.266464 99.856888,110.572380 99.610352,110.878296 
	C98.969948,110.924049 98.329544,110.969795 97.373871,110.939651 
	C97.993271,108.506523 98.927925,106.149292 99.837372,103.435822 
	C101.873711,103.467583 103.935257,103.855583 106.171631,104.679886 
z"/>
<path fill="#F8FBFA" opacity="1.000000" stroke="none" 
	d="
M120.999542,94.369476 
	C120.172508,95.412689 119.039322,96.200226 117.575844,97.052261 
	C116.832649,96.326599 116.419739,95.536461 116.001953,94.386322 
	C117.562515,94.055481 119.127945,94.084641 120.999542,94.369476 
z"/>
<path fill="#F8FBFA" opacity="1.000000" stroke="none" 
	d="
M43.166306,91.221588 
	C43.560287,91.147377 44.112324,91.325989 44.824581,91.751678 
	C44.431320,91.823967 43.877838,91.649185 43.166306,91.221588 
z"/>
<path fill="#F8FBFA" opacity="1.000000" stroke="none" 
	d="
M45.208904,92.261230 
	C45.420174,92.107727 45.834270,92.205475 46.448647,92.559494 
	C46.236530,92.714676 45.824127,92.613571 45.208904,92.261230 
z"/>
<path fill="#0785D9" opacity="1.000000" stroke="none" 
	d="
M36.078804,83.270081 
	C36.312717,83.225121 36.554993,83.451546 36.852501,83.926697 
	C36.634209,83.964104 36.360687,83.752792 36.078804,83.270081 
z"/>
<path fill="#0785D9" opacity="1.000000" stroke="none" 
	d="
M35.088604,81.290565 
	C35.331505,81.287979 35.571941,81.592735 35.845238,82.195595 
	C35.614109,82.195099 35.350124,81.896507 35.088604,81.290565 
z"/>
<path fill="#F8FBFA" opacity="1.000000" stroke="none" 
	d="
M110.123627,102.199791 
	C110.161674,102.439148 109.901337,102.732002 109.344284,103.082664 
	C109.306793,102.844742 109.566017,102.549019 110.123627,102.199791 
z"/>
<path fill="#F8FBFA" opacity="1.000000" stroke="none" 
	d="
M34.088455,80.082512 
	C34.353939,80.008156 34.553654,80.237587 34.641373,80.783173 
	C34.381828,80.831039 34.212929,80.593369 34.088455,80.082512 
z"/>
<path fill="#709DCD" opacity="1.000000" stroke="none" 
	d="
M35.575867,64.865829 
	C35.838783,64.776100 36.174824,65.058174 36.224110,65.270447 
	C36.011604,65.582047 35.749809,65.681381 35.066883,65.793793 
	C34.868149,65.523094 35.090549,65.239326 35.575867,64.865829 
z"/>
<path fill="#FD485A" opacity="1.000000" stroke="none" 
	d="
M51.733185,53.082832 
	C51.777172,53.301102 51.557137,53.552597 51.090126,53.870087 
	C51.051819,53.662739 51.260487,53.389400 51.733185,53.082832 
z"/>
<path fill="#FD485A" opacity="1.000000" stroke="none" 
	d="
M54.731728,50.925812 
	C54.770309,51.156269 54.515789,51.457115 53.965965,51.822666 
	C53.926647,51.590313 54.182632,51.293259 54.731728,50.925812 
z"/>
<path fill="#073154" opacity="1.000000" stroke="none" 
	d="
M99.905502,110.803162 
	C99.856888,110.572380 100.103424,110.266464 100.644745,109.880615 
	C100.693230,110.109787 100.446945,110.418900 99.905502,110.803162 
z"/>
</svg>